<svg width="39" height="30" viewBox="0 0 39 30" fill="none" xmlns="http://www.w3.org/2000/svg">
<path d="M33.8015 10.0525H31.5754V8.90433C31.5754 7.99049 30.8256 7.24067 29.9118 7.24067C28.9979 7.24067 28.2481 7.99049 28.2481 8.90433V10.0525H26.0221V8.90433C26.0221 6.7486 27.7795 5.01465 29.9118 5.01465C32.0675 5.01465 33.8015 6.77204 33.8015 8.90433V10.0525Z" fill="#FFA400"/>
<path d="M34.7151 10.0527H25.108C24.6863 10.0527 24.3582 10.3808 24.3582 10.8026V17.9024C24.3582 18.3242 24.6863 18.6522 25.108 18.6522H34.7151C35.1369 18.6522 35.4649 18.3242 35.4649 17.9024V10.8026C35.4415 10.3808 35.1134 10.0527 34.7151 10.0527ZM30.3802 14.7157V15.6764C30.3802 15.9341 30.1693 16.1684 29.8881 16.1684C29.6304 16.1684 29.3961 15.9576 29.3961 15.6764V14.7157C29.0914 14.5516 28.904 14.2236 28.904 13.8487C28.904 13.3098 29.3492 12.8646 29.8881 12.8646C30.4271 12.8646 30.8723 13.3098 30.8723 13.8487C30.8957 14.2236 30.6848 14.5516 30.3802 14.7157Z" fill="#003A70"/>
<path d="M24.1241 8.99772H21.8043C21.4294 8.99772 21.1248 8.6931 21.1248 8.3182C21.1248 7.94329 21.4294 7.63867 21.8043 7.63867H24.1241C24.499 7.63867 24.8036 7.94329 24.8036 8.3182C24.8036 8.6931 24.499 8.99772 24.1241 8.99772Z" fill="#FFA400"/>
<path d="M25.7645 5.34273C25.6239 5.34273 25.4599 5.29587 25.3427 5.17871L23.5151 3.67907C23.2339 3.44475 23.187 3.02298 23.4213 2.71837C23.6556 2.43718 24.0774 2.39032 24.382 2.62464L26.2097 4.12428C26.4909 4.35859 26.5378 4.78037 26.3034 5.08498C26.1394 5.249 25.952 5.34273 25.7645 5.34273Z" fill="#FFA400"/>
<path d="M29.9118 3.7491C29.5369 3.7491 29.2322 3.44449 29.2322 3.06958V0.726398C29.2322 0.351489 29.5369 0.046875 29.9118 0.046875C30.2867 0.046875 30.5913 0.351489 30.5913 0.726398V3.06958C30.5913 3.44449 30.2867 3.7491 29.9118 3.7491Z" fill="#FFA400"/>
<path d="M34.0355 5.34273C33.848 5.34273 33.6371 5.249 33.52 5.08498C33.2856 4.8038 33.3325 4.35859 33.6137 4.12428L35.4414 2.62464C35.7226 2.39032 36.1678 2.43718 36.4021 2.71837C36.6364 2.99955 36.5895 3.44475 36.3084 3.67907L34.4807 5.17871C34.3401 5.29587 34.1995 5.34273 34.0355 5.34273Z" fill="#FFA400"/>
<path d="M37.9962 8.99772H35.653C35.2781 8.99772 34.9734 8.6931 34.9734 8.3182C34.9734 7.94329 35.2781 7.63867 35.653 7.63867H37.9962C38.3711 7.63867 38.6757 7.94329 38.6757 8.3182C38.6757 8.6931 38.3711 8.99772 37.9962 8.99772Z" fill="#FFA400"/>
<path d="M0.176758 18.5577V10.9892H2.00444V16.9643H4.93342V18.5577H0.176758ZM10.9788 15.9568V16.1677V16.3785H7.11258C7.13601 16.5191 7.18288 16.6597 7.25317 16.7769C7.32347 16.894 7.41719 17.0112 7.53435 17.0815C7.65151 17.1752 7.7921 17.2455 7.9327 17.2924C8.07329 17.3393 8.23731 17.3627 8.3779 17.3627C8.65908 17.3627 8.8934 17.3158 9.08086 17.1987C9.26831 17.1049 9.43233 16.9643 9.54949 16.8003L10.7679 17.5736C10.5102 17.9485 10.1822 18.2062 9.78381 18.4171C9.38547 18.6046 8.8934 18.7217 8.35447 18.7217C7.95613 18.7217 7.58122 18.6514 7.22974 18.5343C6.87826 18.4171 6.57365 18.2297 6.29247 17.9953C6.03472 17.761 5.82383 17.4564 5.65981 17.1049C5.49578 16.7535 5.42549 16.3551 5.42549 15.9099C5.42549 15.4647 5.49578 15.0898 5.65981 14.7383C5.8004 14.3868 6.01128 14.0822 6.26903 13.8479C6.52678 13.6136 6.8314 13.4027 7.18288 13.2855C7.53435 13.145 7.90926 13.0747 8.3076 13.0747C8.70595 13.0747 9.05742 13.145 9.38547 13.2621C9.71351 13.4027 9.9947 13.5902 10.229 13.8245C10.4633 14.0822 10.6508 14.3868 10.7679 14.7383C10.9085 15.1132 10.9788 15.5116 10.9788 15.9568ZM9.36204 15.3007C9.36204 15.0195 9.26831 14.7852 9.10429 14.5743C8.94026 14.3634 8.65908 14.2697 8.3076 14.2697C8.14358 14.2697 7.97956 14.2931 7.83897 14.34C7.69838 14.3868 7.58122 14.4571 7.46406 14.5509C7.3469 14.6446 7.2766 14.7617 7.20631 14.8789C7.13601 14.9961 7.11258 15.1367 7.08915 15.2773H9.36204V15.3007ZM13.7907 14.5509V16.5894C13.7907 16.8472 13.8375 17.0346 13.9312 17.1518C14.025 17.269 14.189 17.3393 14.4467 17.3393C14.5405 17.3393 14.6342 17.3393 14.7279 17.3158C14.8217 17.2924 14.9154 17.269 14.9622 17.2455L14.9857 18.5343C14.8685 18.5811 14.7045 18.6046 14.517 18.6514C14.3296 18.6749 14.1421 18.6983 13.9547 18.6983C13.6032 18.6983 13.2986 18.6514 13.0643 18.5577C12.8299 18.464 12.6191 18.3468 12.4785 18.1828C12.3379 18.0188 12.2207 17.8079 12.1739 17.5736C12.127 17.3393 12.0801 17.0815 12.0801 16.8003V14.5509H11.2132V13.2387H12.0567V11.8328H13.7907V13.2387H15.0325V14.5509H13.7907ZM16.6493 10.8486C16.1338 10.8486 15.7121 11.2235 15.7121 11.7156C15.7121 12.2311 16.0635 12.5592 16.579 12.5592C16.6259 12.5592 16.6728 12.5592 16.6962 12.5357C16.6025 12.9106 16.251 13.1918 15.8995 13.2387H15.8292V14.0588H15.923C16.3447 14.0119 16.7431 13.8245 17.0477 13.5433C17.446 13.1684 17.6569 12.606 17.6569 11.9499C17.6569 11.3173 17.2351 10.8486 16.6493 10.8486ZM20.703 14.8086C20.5625 14.668 20.3984 14.5509 20.211 14.4571C20.0235 14.3634 19.8126 14.3165 19.6017 14.3165C19.4377 14.3165 19.2971 14.34 19.1565 14.4103C19.016 14.4806 18.9457 14.5743 18.9457 14.7383C18.9457 14.8789 19.016 14.9961 19.18 15.0664C19.344 15.1367 19.5783 15.207 19.9298 15.2773C20.1407 15.3241 20.3281 15.371 20.539 15.4647C20.7499 15.5584 20.9139 15.6522 21.078 15.7693C21.242 15.8865 21.3826 16.0505 21.4763 16.238C21.57 16.4254 21.6169 16.6363 21.6169 16.894C21.6169 17.2221 21.5466 17.5033 21.406 17.7376C21.2654 17.9719 21.1014 18.1594 20.8671 18.3C20.6562 18.4405 20.3984 18.5343 20.1407 18.6046C19.8595 18.6749 19.6017 18.6983 19.3206 18.6983C18.8754 18.6983 18.4536 18.628 18.0552 18.4874C17.6335 18.3468 17.282 18.1359 17.0242 17.8782L18.0084 16.8472C18.1724 17.0112 18.3599 17.1518 18.5942 17.269C18.8285 17.3861 19.0628 17.433 19.3206 17.433C19.4612 17.433 19.6017 17.4095 19.7423 17.3393C19.8829 17.269 19.9532 17.1518 19.9532 16.9878C19.9532 16.8238 19.8595 16.7066 19.6955 16.6129C19.5315 16.5426 19.2503 16.4488 18.8988 16.3785C18.7113 16.3317 18.5239 16.2848 18.3364 16.2145C18.149 16.1442 17.985 16.0505 17.8444 15.9333C17.7038 15.8162 17.5866 15.6522 17.4929 15.4881C17.3992 15.3007 17.3523 15.0898 17.3523 14.8555C17.3523 14.5274 17.4226 14.2697 17.5632 14.0354C17.7038 13.801 17.8678 13.637 18.0787 13.4964C18.2896 13.3558 18.5239 13.2387 18.7816 13.1918C19.0394 13.1215 19.2971 13.0981 19.5549 13.0981C19.9532 13.0981 20.3516 13.1684 20.7265 13.2855C21.1014 13.4027 21.4294 13.5902 21.6872 13.8479L20.703 14.8086ZM0.176758 27.3212V19.7527H5.26147V21.2992H1.93415V22.7286H5.07401V24.1813H1.93415V25.7513H5.44892V27.3212H0.176758ZM10.065 27.3212V24.4157C10.065 24.2751 10.0416 24.1345 10.0181 23.9939C9.9947 23.8533 9.94783 23.7361 9.90097 23.6424C9.85411 23.5487 9.76038 23.455 9.66665 23.4081C9.57292 23.3378 9.43233 23.3144 9.26831 23.3144C9.10429 23.3144 8.9637 23.3378 8.84654 23.4081C8.72938 23.4784 8.63565 23.5487 8.54192 23.6658C8.47163 23.783 8.40133 23.9002 8.35447 24.0408C8.3076 24.1813 8.28417 24.3219 8.28417 24.4625V27.3446H6.52679V22.0256H8.21388V22.752H8.23731C8.3076 22.6348 8.3779 22.5177 8.49506 22.424C8.58879 22.3068 8.72938 22.2131 8.84654 22.1428C8.98713 22.0725 9.12772 22.0022 9.29174 21.9553C9.45576 21.9085 9.61979 21.885 9.80724 21.885C10.1587 21.885 10.4633 21.9553 10.7211 22.0725C10.9788 22.1896 11.1663 22.3771 11.3303 22.5646C11.4943 22.7754 11.5881 23.0098 11.6584 23.2675C11.7287 23.5253 11.7521 23.783 11.7521 24.0642V27.3446H10.065V27.3212ZM16.3447 23.7127C16.251 23.5956 16.1104 23.4784 15.9464 23.4081C15.7824 23.3378 15.5949 23.2909 15.4309 23.2909C15.2434 23.2909 15.0794 23.3378 14.9388 23.4081C14.7982 23.4784 14.6576 23.5721 14.5639 23.7127C14.4702 23.8533 14.3764 23.9705 14.3062 24.1345C14.2359 24.2985 14.2124 24.4625 14.2124 24.65C14.2124 24.8374 14.2359 25.0015 14.3062 25.1655C14.353 25.3295 14.4467 25.4701 14.5639 25.5873C14.6811 25.7044 14.7982 25.8216 14.9622 25.8919C15.1263 25.9622 15.2903 26.009 15.4777 26.009C15.6652 26.009 15.8292 25.9856 16.0167 25.9153C16.1807 25.845 16.3213 25.7513 16.4385 25.6107L17.3992 26.8057C17.1883 27.0166 16.8837 27.1806 16.5556 27.2978C16.2041 27.4149 15.8292 27.4852 15.4543 27.4852C15.0325 27.4852 14.6342 27.4149 14.2827 27.2978C13.9078 27.1806 13.6032 26.9932 13.322 26.7354C13.0643 26.5011 12.8534 26.1965 12.6894 25.845C12.5253 25.4935 12.455 25.0952 12.455 24.65C12.455 24.2048 12.5253 23.8299 12.6894 23.4784C12.8534 23.1269 13.0643 22.8223 13.322 22.588C13.5798 22.3537 13.9078 22.1428 14.2827 22.0256C14.6576 21.885 15.0325 21.8382 15.4543 21.8382C15.6418 21.8382 15.8292 21.8616 16.0167 21.885C16.2041 21.9319 16.3916 21.9788 16.5556 22.0256C16.7196 22.0959 16.8837 22.1662 17.0477 22.2599C17.1883 22.3537 17.3289 22.4474 17.4226 22.5646L16.3447 23.7127ZM21.4529 23.455C21.3826 23.4315 21.2888 23.4081 21.2185 23.4081H21.0077C20.7733 23.4081 20.5859 23.455 20.4219 23.5253C20.2578 23.619 20.1407 23.7127 20.047 23.8299C19.9532 23.947 19.8829 24.0876 19.8361 24.2282C19.7892 24.3688 19.7658 24.486 19.7658 24.6031V27.3212H18.0084V22.0022H19.6955V22.7754H19.7189C19.8595 22.4943 20.047 22.2834 20.3047 22.1193C20.5625 21.9553 20.8436 21.8616 21.1717 21.8616H21.3826C21.4529 21.8616 21.4997 21.885 21.5466 21.885L21.4529 23.455ZM25.5769 28.1179C25.4597 28.3991 25.3425 28.6334 25.2254 28.8677C25.0848 29.0786 24.9442 29.2661 24.7568 29.4301C24.5693 29.5941 24.3584 29.6878 24.1241 29.7816C23.8898 29.8519 23.5852 29.8987 23.2571 29.8987C23.0931 29.8987 22.9291 29.8987 22.7416 29.8753C22.5776 29.8519 22.4136 29.8284 22.2964 29.7816L22.4839 28.3054C22.5776 28.3288 22.6713 28.3522 22.765 28.3756C22.8588 28.3991 22.9525 28.3991 23.0462 28.3991C23.3274 28.3991 23.5149 28.3288 23.632 28.2116C23.7492 28.0945 23.8663 27.907 23.9366 27.6727L24.1007 27.2275L21.8746 22.0022H23.8195L25.0145 25.4232H25.0379L26.0924 22.0022H27.9435L25.5769 28.1179ZM34.3404 24.65C34.3404 25.0249 34.2935 25.3764 34.1763 25.7278C34.0592 26.0793 33.8952 26.3605 33.6843 26.6417C33.4734 26.8994 33.1922 27.1103 32.8876 27.2743C32.583 27.4384 32.2081 27.5087 31.8097 27.5087C31.4817 27.5087 31.1771 27.4384 30.8725 27.3212C30.5913 27.1806 30.357 27.0166 30.1929 26.7823H30.1695V29.9456H28.4121V22.0725H30.0758V22.7286H30.0992C30.2632 22.5177 30.4976 22.3302 30.7787 22.1662C31.0599 22.0022 31.4114 21.9319 31.8097 21.9319C32.1846 21.9319 32.5361 22.0022 32.8642 22.1662C33.1688 22.3068 33.45 22.5177 33.6609 22.7754C33.8717 23.0332 34.0358 23.3378 34.1529 23.6658C34.2701 23.9236 34.3404 24.2751 34.3404 24.65ZM32.6298 24.65C32.6298 24.486 32.6064 24.3219 32.5596 24.1579C32.5127 23.9939 32.419 23.8533 32.3252 23.7361C32.2315 23.619 32.0909 23.5018 31.9269 23.4315C31.7629 23.3612 31.5988 23.3144 31.388 23.3144C31.1771 23.3144 31.0131 23.3612 30.849 23.4315C30.685 23.5018 30.5678 23.619 30.4507 23.7361C30.3335 23.8533 30.2632 24.0173 30.1929 24.1813C30.1226 24.3454 30.0992 24.5094 30.0992 24.6734C30.0992 24.8374 30.1226 25.0015 30.1929 25.1655C30.2632 25.3295 30.3335 25.4701 30.4507 25.6107C30.5678 25.7278 30.685 25.845 30.849 25.9153C31.0131 25.9856 31.1771 26.0325 31.388 26.0325C31.5988 26.0325 31.7863 25.9856 31.9269 25.9153C32.0909 25.845 32.2081 25.7278 32.3252 25.6107C32.419 25.4935 32.5127 25.3295 32.5596 25.1655C32.6064 24.978 32.6298 24.814 32.6298 24.65ZM37.1288 23.3144V25.3529C37.1288 25.6107 37.1756 25.7981 37.2694 25.9153C37.3631 26.0325 37.5271 26.1028 37.7849 26.1028C37.8786 26.1028 37.9723 26.1028 38.066 26.0793C38.1598 26.0559 38.2535 26.0325 38.3004 26.009L38.3238 27.2978C38.2066 27.3446 38.0426 27.3681 37.8551 27.4149C37.6677 27.4384 37.4802 27.4618 37.2928 27.4618C36.9413 27.4618 36.6367 27.4149 36.4024 27.3212C36.1681 27.2275 35.9572 27.1103 35.8166 26.9463C35.676 26.7823 35.5588 26.5714 35.512 26.3371C35.4651 26.1028 35.4182 25.845 35.4182 25.5638V23.3144H34.5747V22.0022H35.4182V20.5963H37.1288V22.0022H38.3706V23.3144H37.1288Z" fill="#003A70"/>
</svg>
