<svg width="91" height="91" viewBox="0 0 91 91" fill="none" xmlns="http://www.w3.org/2000/svg">
<circle cx="45.5" cy="45.5691" r="45" fill="#005CFF"/>
<path d="M63 42.2509C63 55.6145 45.75 67.0691 45.75 67.0691C45.75 67.0691 28.5 55.6145 28.5 42.2509C28.5 37.694 30.3174 33.3237 33.5524 30.1015C36.7874 26.8793 41.175 25.0691 45.75 25.0691C50.325 25.0691 54.7126 26.8793 57.9476 30.1015C61.1826 33.3237 63 37.694 63 42.2509Z" stroke="white" stroke-width="1.81818" stroke-linecap="round" stroke-linejoin="round"/>
<path d="M45 49.0691C48.3137 49.0691 51 46.3828 51 43.0691C51 39.7554 48.3137 37.0691 45 37.0691C41.6863 37.0691 39 39.7554 39 43.0691C39 46.3828 41.6863 49.0691 45 49.0691Z" stroke="white" stroke-width="1.81818" stroke-linecap="round" stroke-linejoin="round"/>
</svg>
